<?xml version="1.0"?><svg xmlns="http://www.w3.org/2000/svg" width="946" height="946" viewBox="0 0 946 946" version="1.2" baseProfile="tiny-ps"><title>Company Name</title><g><path d="M 430.64 651.90 C426.09,653.30 420.02,654.15 412.64,654.44 C395.24,655.12 386.89,653.46 372.47,646.44 C352.27,636.60 339.42,618.99 335.37,595.57 C331.60,573.85 338.01,552.04 352.89,535.91 C364.33,523.50 380.06,515.99 398.58,514.09 C423.25,511.56 444.36,517.85 459.64,532.29 C480.25,551.78 486.98,581.14 477.17,608.84 C469.89,629.42 453.00,645.05 430.64,651.90 ZM 396.50 636.03 C403.62,637.31 416.43,637.04 422.46,635.47 C431.36,633.15 439.84,628.23 446.50,621.51 C466.17,601.68 466.88,568.89 448.09,547.87 C442.20,541.28 435.65,536.85 427.42,533.87 C418.66,530.70 398.22,530.72 389.05,533.91 C363.55,542.79 349.29,569.53 355.58,596.69 C360.16,616.47 376.79,632.46 396.50,636.03 ZM 661.45 619.00 L 646.26 653.50 L 636.71 653.79 C631.46,653.94 626.94,653.71 626.67,653.28 C626.27,652.63 634.16,634.49 643.99,613.50 C646.48,608.17 673.44,548.34 681.73,529.75 L 688.30 515.00 L 708.67 515.00 L 714.47 527.75 C717.67,534.76 721.52,543.20 723.03,546.50 C724.54,549.80 733.30,569.15 742.49,589.50 C751.69,609.85 761.86,632.20 765.11,639.17 C768.35,646.13 771.00,652.32 771.00,652.92 C771.00,653.62 767.70,654.00 761.65,654.00 C753.99,654.00 752.04,653.68 750.81,652.25 C749.52,650.75 746.11,643.34 737.45,623.25 L 735.62 619.00 ZM 520.50 532.50 L 519.98 654.00 L 511.16 654.00 C506.30,654.00 502.03,653.70 501.67,653.33 C501.30,652.97 501.00,621.69 501.00,583.83 L 501.00 515.00 L 533.43 515.00 C569.80,515.00 574.97,515.61 587.57,521.44 C596.77,525.69 603.67,532.49 608.21,541.78 C611.47,548.44 611.50,548.64 611.50,563.00 C611.50,576.85 611.37,577.75 608.70,583.19 C604.83,591.08 598.02,598.31 589.91,603.12 C586.25,605.30 584.32,606.38 583.99,607.82 C583.64,609.37 585.17,611.34 588.42,615.56 C588.57,615.77 588.73,615.97 588.89,616.18 C590.88,618.76 595.20,624.73 598.50,629.45 C601.80,634.17 606.82,641.28 609.65,645.26 C612.48,649.24 614.59,652.84 614.34,653.25 C614.09,653.66 609.45,654.00 604.04,654.00 L 594.19 654.00 L 589.29 647.25 C581.40,636.39 572.65,623.98 568.06,617.16 L 563.80 610.81 L 551.41 611.52 C550.67,611.57 549.97,611.61 549.30,611.65 C543.01,612.03 540.18,612.20 538.87,610.87 C537.66,609.63 537.77,607.12 537.66,602.29 L 537.50 595.50 L 543.50 595.24 C567.41,594.23 577.64,591.50 584.67,584.27 C593.19,575.50 595.23,560.14 589.44,548.29 C586.40,542.08 581.12,537.64 573.27,534.70 C567.97,532.72 565.59,532.54 544.00,532.52 ZM 193.77 625.89 L 193.50 653.50 L 184.45 653.78 C179.47,653.94 175.09,653.75 174.70,653.37 C174.32,652.98 174.00,621.69 174.00,583.83 L 174.00 515.00 L 272.08 515.00 L 271.50 531.50 L 232.73 531.76 L 193.96 532.02 L 194.23 555.76 L 194.50 579.50 L 263.00 580.03 L 263.00 597.00 L 234.65 597.00 C219.05,597.00 203.53,597.29 200.16,597.64 L 194.03 598.28 ZM 313.02 609.75 L 313.00 654.00 L 294.00 654.00 L 294.00 515.00 L 303.50 515.00 C312.66,515.00 313.00,515.08 313.10,517.25 C313.15,518.49 313.16,529.85 313.12,542.50 C313.07,555.15 313.03,585.41 313.02,609.75 ZM 669.62 602.19 C670.27,603.24 726.73,603.25 727.37,602.21 C727.64,601.77 721.59,587.13 713.93,569.66 C706.27,552.20 700.00,537.48 700.00,536.95 C700.00,536.43 699.57,536.00 699.05,536.00 C698.11,536.00 696.55,539.09 690.98,552.00 C689.44,555.58 683.89,568.15 678.65,579.94 C673.41,591.74 669.35,601.75 669.62,602.19 ZM 272.00 707.06 C272.00,710.35 271.55,713.00 271.00,713.00 C270.41,713.00 270.00,709.33 270.00,704.00 C270.00,698.88 270.42,695.00 270.97,695.00 C271.50,695.00 273.84,697.70 276.16,701.00 C278.49,704.30 280.76,707.00 281.20,707.00 C281.64,707.00 282.00,704.30 282.00,701.00 C282.00,697.67 282.44,695.00 283.00,695.00 C283.59,695.00 284.00,698.67 284.00,704.00 C284.00,709.56 283.60,713.00 282.96,713.00 C282.39,713.00 280.07,710.09 277.80,706.54 C275.54,702.99 273.30,700.31 272.84,700.60 C272.38,700.88 272.00,703.79 272.00,707.06 ZM 406.80 703.99 C406.64,708.94 406.27,712.99 406.00,712.99 C405.29,713.00 400.70,707.08 398.47,703.25 C397.42,701.46 395.99,700.00 395.28,700.00 C394.58,700.00 394.00,699.59 394.00,699.08 C394.00,698.58 393.73,697.45 393.39,696.58 C393.02,695.61 393.31,695.01 394.14,695.03 C394.89,695.05 397.29,697.86 399.47,701.28 L 403.45 707.50 L 404.31 701.25 C405.61,691.86 407.16,693.56 406.80,703.99 ZM 744.14 711.09 C741.05,713.59 737.51,713.51 734.89,710.89 C733.12,709.12 732.84,707.89 733.21,703.45 C733.46,700.52 734.24,697.42 734.95,696.56 C736.57,694.61 741.98,694.53 744.56,696.42 C747.02,698.22 745.58,699.84 742.97,698.21 C738.24,695.26 735.00,697.77 735.00,704.36 C735.00,710.17 739.34,712.81 743.18,709.34 C744.19,708.43 745.35,708.01 745.76,708.43 C746.17,708.84 745.44,710.03 744.14,711.09 ZM 553.04 705.23 C552.99,707.38 549.53,713.20 548.75,712.42 C548.44,712.10 549.49,708.67 551.09,704.78 C552.69,700.90 554.00,697.11 554.00,696.36 C554.00,695.61 554.56,695.00 555.25,695.01 C555.94,695.01 557.91,699.06 559.64,704.01 C561.37,708.95 562.46,713.00 562.05,713.00 C561.65,713.00 560.80,711.85 560.15,710.44 C559.29,708.55 558.48,708.03 557.08,708.48 C556.03,708.81 554.88,708.61 554.53,708.04 C554.17,707.47 554.56,707.00 555.38,707.00 C557.74,707.00 558.30,705.14 556.93,701.84 L 555.68 698.80 L 554.37 701.15 C553.66,702.44 553.05,704.28 553.04,705.23 ZM 770.46 712.06 C769.80,713.13 761.69,713.35 760.67,712.33 C760.30,711.97 760.00,707.92 760.00,703.33 L 760.00 695.00 L 765.50 695.00 C768.53,695.00 771.00,695.42 771.00,695.94 C771.00,696.46 769.09,696.79 766.75,696.69 L 762.50 696.50 L 762.50 710.50 L 766.77 710.81 C769.12,710.98 770.78,711.54 770.46,712.06 ZM 680.90 709.44 C678.81,712.99 678.00,713.75 678.00,712.17 C678.00,710.71 683.21,696.54 684.11,695.57 C685.33,694.23 685.78,694.94 688.64,702.63 C692.11,711.94 692.38,713.00 691.31,713.00 C690.81,713.00 689.56,710.64 688.55,707.75 C685.74,699.74 684.96,698.46 683.91,700.11 C683.43,700.88 683.02,702.49 683.02,703.69 C683.01,704.90 682.06,707.49 680.90,709.44 ZM 636.17 711.35 C632.78,714.42 626.45,712.49 625.58,708.12 C625.29,706.68 625.44,703.03 625.90,700.00 L 626.75 694.50 L 626.88 701.18 C627.01,708.16 628.45,711.00 631.87,711.00 C635.01,711.00 636.00,708.78 636.00,701.80 C636.00,697.93 636.43,695.00 637.00,695.00 C637.58,695.00 638.00,698.11 638.00,702.35 C638.00,708.19 637.63,710.03 636.17,711.35 ZM 247.90 704.19 C247.23,706.56 245.79,709.40 244.71,710.50 L 242.74 712.50 L 243.31 710.50 C245.07,704.25 248.94,695.50 249.94,695.50 C250.58,695.50 252.19,698.65 253.51,702.50 C255.99,709.71 256.74,714.32 254.78,710.25 C254.18,709.01 253.20,708.00 252.60,708.00 C251.99,708.00 251.50,706.36 251.50,704.34 C251.50,699.11 249.36,699.02 247.90,704.19 ZM 718.24 702.25 C717.90,709.66 717.80,712.37 717.23,712.48 C716.90,712.53 716.43,711.74 715.67,710.49 L 715.53 710.25 C714.45,708.46 713.32,707.00 713.01,707.00 C712.71,707.00 711.61,705.42 710.57,703.50 C709.53,701.58 708.08,700.00 707.34,700.00 C706.58,700.00 706.00,698.93 706.00,697.50 C706.00,696.12 706.34,695.01 706.75,695.03 C707.16,695.05 709.28,697.86 711.46,701.28 L 715.43 707.50 L 716.09 704.50 C716.46,702.85 716.82,700.04 716.88,698.25 C716.95,696.46 717.35,695.00 717.78,695.00 C718.21,695.00 718.42,698.26 718.24,702.25 ZM 440.13 708.25 C440.06,710.31 439.53,712.00 438.96,712.00 C438.30,712.00 438.03,708.98 438.21,703.75 L 438.50 695.50 L 442.71 695.19 C447.67,694.83 451.00,696.33 451.00,698.92 C451.00,701.23 447.44,705.77 446.43,704.76 C446.01,704.35 446.43,703.19 447.34,702.18 C448.25,701.17 449.00,700.07 449.00,699.74 C449.00,698.11 445.52,696.00 442.84,696.00 C439.92,696.00 439.83,696.14 440.04,700.25 C440.17,702.59 440.21,706.19 440.13,708.25 ZM 228.81 703.75 C228.99,712.64 227.99,715.51 226.20,711.25 C224.43,707.07 219.35,700.11 217.75,699.67 C216.04,699.20 215.20,695.00 216.81,695.00 C217.66,695.00 221.24,699.46 224.24,704.23 C226.88,708.45 227.87,707.60 228.26,700.75 C228.55,695.71 228.65,696.29 228.81,703.75 ZM 327.29 704.67 C327.44,710.07 327.13,712.46 326.25,712.75 C325.31,713.06 325.00,710.91 325.00,704.08 L 325.00 695.00 L 330.56 695.00 C334.01,695.00 335.88,695.38 335.50,696.00 C335.16,696.55 333.13,697.00 330.98,697.00 L 327.07 697.00 ZM 176.18 704.38 C176.16,708.16 175.66,711.74 175.07,712.33 C174.31,713.09 174.00,710.76 174.00,704.20 C174.00,695.49 174.11,695.00 176.12,695.00 C177.70,695.00 177.98,695.32 177.23,696.25 C176.66,696.94 176.19,700.59 176.18,704.38 ZM 509.73 707.75 C509.10,710.09 508.28,712.00 507.90,712.00 C507.52,712.00 507.26,708.40 507.33,704.00 C507.40,699.60 507.81,696.00 508.23,696.00 C508.65,696.00 509.00,697.26 509.00,698.80 C509.00,700.34 509.42,702.03 509.94,702.55 C510.52,703.14 510.44,705.11 509.73,707.75 Z" fill="rgb(48,50,52)"/><path d="M 504.50 400.05 C499.59,402.46 499.03,402.50 472.00,402.64 C441.95,402.79 437.50,402.43 437.50,399.81 C437.50,398.12 446.49,388.00 447.99,388.00 C448.42,388.00 449.71,386.02 450.85,383.59 C452.63,379.81 453.60,378.97 457.71,377.67 C464.45,375.53 494.35,374.78 496.27,376.70 C497.14,377.57 501.31,378.29 507.83,378.68 C513.44,379.02 518.76,379.84 519.65,380.49 C523.77,383.50 514.92,394.93 504.50,400.05 ZM 557.72 301.78 C549.52,304.47 548.57,304.52 549.49,302.25 C549.88,301.29 550.68,297.58 551.26,294.00 C551.85,290.42 553.30,282.33 554.48,276.00 C556.45,265.47 556.50,264.31 555.07,262.28 C554.21,261.06 552.73,260.05 551.78,260.03 C550.58,260.01 550.25,259.47 550.67,258.25 C551.31,256.41 551.46,256.26 557.45,251.50 C559.64,249.76 562.19,246.34 563.52,243.33 C564.78,240.49 566.64,237.73 567.66,237.20 C568.67,236.67 573.66,236.05 578.75,235.81 L 588.00 235.38 L 588.00 238.72 C588.00,240.56 586.85,249.36 585.45,258.28 C582.34,278.06 579.67,284.36 570.60,293.44 C565.55,298.49 563.29,299.95 557.72,301.78 ZM 406.78 333.00 C398.57,333.00 391.01,333.46 389.97,334.02 C388.43,334.84 388.74,333.69 391.62,328.03 C395.42,320.55 401.51,314.28 409.76,309.35 C414.43,306.55 414.78,306.50 432.64,306.16 C452.76,305.77 455.93,306.39 453.84,310.29 C453.19,311.51 452.38,313.85 452.04,315.50 C451.55,317.90 450.63,318.76 447.46,319.80 C442.36,321.47 441.13,322.77 440.82,326.75 C440.69,328.54 440.19,330.00 439.73,330.00 C439.26,330.00 439.12,330.38 439.41,330.85 C440.12,332.00 424.97,333.00 406.78,333.00 ZM 376.09 460.52 C374.49,464.14 373.62,465.00 371.56,465.00 C368.39,465.00 368.38,464.64 371.01,447.60 C373.67,430.37 374.54,427.41 378.77,421.21 C383.41,414.42 389.04,409.85 396.77,406.60 C404.21,403.46 407.51,403.17 406.15,405.75 C405.64,406.71 404.91,410.42 404.53,414.00 C403.87,420.10 401.50,433.44 400.40,437.18 C400.13,438.10 398.57,439.16 396.93,439.52 C392.86,440.41 378.65,454.73 376.09,460.52 ZM 383.79 360.75 C382.60,362.19 357.47,362.57 356.60,361.17 C356.08,360.32 359.21,343.97 360.52,340.72 C361.76,337.65 364.75,336.90 375.00,337.07 C382.06,337.20 385.46,337.22 386.81,338.90 C388.07,340.46 387.56,343.44 386.57,349.22 L 386.52 349.56 C385.59,355.03 384.36,360.06 383.79,360.75 ZM 409.08 289.88 C398.46,291.24 396.00,291.28 396.00,290.07 C396.00,287.42 398.66,282.97 403.60,277.34 C409.46,270.67 418.09,265.51 425.38,264.33 L 429.20 263.71 L 427.60 266.80 C426.72,268.51 426.00,271.16 425.99,272.70 C425.98,277.71 424.05,282.85 421.91,283.53 C420.79,283.88 419.41,285.21 418.83,286.47 C417.92,288.46 416.63,288.91 409.08,289.88 ZM 453.55 440.65 C442.87,445.77 441.79,445.33 444.33,436.91 C445.06,434.48 445.78,432.05 445.93,431.50 C446.08,430.95 447.27,428.68 448.57,426.46 C451.79,420.98 458.24,417.87 467.75,417.23 C475.95,416.67 476.27,417.03 472.64,422.77 C467.55,430.80 460.70,437.22 453.55,440.65 ZM 467.00 703.44 C467.00,708.48 466.59,712.00 466.00,712.00 C465.42,712.00 465.00,708.69 465.00,704.06 C465.00,699.69 465.45,695.84 466.00,695.50 C466.64,695.11 467.00,697.99 467.00,703.44 ZM 655.00 700.06 C655.00,702.23 654.55,704.00 654.00,704.00 C653.45,704.00 653.00,701.96 653.00,699.47 C653.00,694.39 654.30,693.28 658.75,694.60 L 661.50 695.41 L 658.25 695.77 C655.19,696.11 655.00,696.36 655.00,700.06 ZM 584.00 712.00 C584.00,712.55 582.42,713.00 580.50,713.00 C578.58,713.00 577.00,712.55 577.00,712.00 C577.00,711.45 578.58,711.00 580.50,711.00 C582.42,711.00 584.00,711.45 584.00,712.00 Z" fill="rgb(50,131,96)"/><path d="M 557.72 301.78 C563.29,299.95 565.55,298.49 570.60,293.44 C577.74,286.30 580.91,280.87 583.46,269.24 C582.09,277.38 580.68,286.00 579.89,291.00 C577.60,305.45 575.88,311.84 573.01,316.49 C570.51,320.53 564.25,326.30 559.96,328.52 C551.38,332.96 551.08,332.97 475.50,333.11 C435.90,333.18 400.58,333.52 397.01,333.87 C389.95,334.56 389.06,334.91 387.17,345.61 C387.70,342.12 387.77,340.10 386.81,338.90 C385.46,337.22 382.06,337.20 375.00,337.07 C364.75,336.90 361.76,337.65 360.52,340.72 C359.24,343.90 356.21,359.63 356.57,361.09 C356.55,361.07 356.53,361.05 356.51,361.02 C356.18,360.49 356.40,358.22 357.00,355.98 C357.61,353.75 358.53,348.00 359.06,343.21 C361.43,321.77 371.08,309.17 387.52,306.05 C391.65,305.27 416.54,304.94 468.15,304.97 C514.02,305.01 543.78,304.65 545.35,304.06 C546.75,303.53 548.55,302.06 549.36,300.79 C550.74,298.63 553.07,284.72 554.56,269.75 L 555.23 263.00 L 493.81 263.00 C445.30,263.00 432.01,263.27 430.62,264.29 C429.44,265.15 427.96,269.67 426.11,278.04 L 423.36 290.50 L 410.93 291.22 C404.09,291.62 397.93,291.74 397.23,291.50 C396.86,291.37 396.59,291.22 396.46,290.70 C397.55,291.19 400.89,290.93 409.08,289.88 C416.63,288.91 417.92,288.46 418.83,286.47 C419.41,285.21 420.79,283.88 421.91,283.53 C424.05,282.85 425.98,277.71 425.99,272.70 C426.00,271.16 426.72,268.51 427.60,266.80 L 429.20 263.71 L 425.38 264.33 C418.09,265.51 409.46,270.67 403.60,277.34 C399.84,281.63 397.40,285.23 396.45,287.87 C396.69,285.17 397.39,280.33 398.69,271.50 C399.66,264.89 401.29,258.42 402.76,255.28 C406.20,247.94 413.68,240.68 420.73,237.83 L 426.50 235.50 L 588.00 234.92 L 588.00 235.38 L 578.75 235.81 C573.66,236.05 568.67,236.67 567.66,237.20 C566.64,237.73 564.78,240.49 563.52,243.33 C562.19,246.34 559.64,249.76 557.45,251.50 C551.46,256.26 551.31,256.41 550.67,258.25 C550.25,259.47 550.58,260.01 551.78,260.03 C552.73,260.05 554.21,261.06 555.07,262.28 C556.50,264.31 556.45,265.47 554.48,276.00 C553.30,282.33 551.85,290.42 551.26,294.00 C550.68,297.58 549.88,301.29 549.49,302.25 C548.57,304.52 549.52,304.47 557.72,301.78 ZM 403.94 418.48 C404.19,416.78 404.40,415.24 404.53,414.00 C404.91,410.42 405.64,406.71 406.15,405.75 C407.51,403.17 404.21,403.46 396.77,406.60 C389.04,409.85 383.41,414.42 378.77,421.21 C375.52,425.98 374.26,428.82 372.64,437.70 C373.60,431.30 374.50,424.90 375.03,420.50 C378.04,395.24 382.25,386.93 396.00,379.17 L 402.50 375.50 L 446.00 375.24 C469.92,375.09 490.45,374.76 491.62,374.50 C494.62,373.83 497.68,366.09 498.55,357.00 C498.94,352.88 499.70,348.94 500.25,348.25 C500.96,347.36 505.12,347.00 514.62,347.00 C516.03,347.00 517.30,346.99 518.44,346.98 C523.66,346.93 526.22,346.90 527.28,348.15 C528.30,349.37 527.91,351.77 527.14,356.51 C526.96,357.58 526.77,358.77 526.57,360.09 C523.37,381.08 521.01,387.15 513.35,394.07 C511.83,395.44 510.21,396.67 508.48,397.75 C517.01,392.09 523.23,383.11 519.65,380.49 C518.76,379.84 513.44,379.02 507.83,378.68 C501.31,378.29 497.14,377.57 496.27,376.70 C494.35,374.78 464.45,375.53 457.71,377.67 C453.60,378.97 452.63,379.81 450.85,383.59 C449.71,386.02 448.42,388.00 447.99,388.00 C446.49,388.00 437.50,398.12 437.50,399.81 C437.50,402.43 441.95,402.79 472.00,402.64 C489.12,402.55 495.62,402.50 499.33,401.87 C497.58,402.39 495.75,402.81 493.85,403.12 C489.92,403.77 472.53,404.04 448.18,403.84 C445.01,403.81 442.08,403.78 439.38,403.75 C414.95,403.51 408.73,403.45 406.66,406.36 C405.72,407.67 405.64,409.59 405.10,412.38 C404.69,414.55 404.30,416.58 403.94,418.48 ZM 376.09 460.52 C378.65,454.73 392.86,440.41 396.93,439.52 C398.57,439.16 400.13,438.10 400.40,437.18 C400.56,436.64 400.75,435.89 400.95,434.99 C400.30,438.92 400.00,441.27 400.00,442.31 L 400.00 445.00 L 418.45 445.00 C430.10,445.00 437.83,444.58 439.40,443.86 C442.11,442.63 442.81,440.35 445.10,425.25 L 446.35 417.00 L 460.67 417.00 C463.77,417.00 466.57,417.06 468.86,417.16 C468.51,417.18 468.14,417.20 467.75,417.23 C458.24,417.87 451.79,420.98 448.57,426.46 C447.27,428.68 446.08,430.95 445.93,431.50 C445.78,432.05 445.06,434.48 444.33,436.91 C441.79,445.33 442.87,445.77 453.55,440.65 C460.70,437.22 467.55,430.80 472.64,422.77 C474.38,420.02 475.21,418.51 474.71,417.74 C474.90,417.80 475.00,417.87 475.00,417.93 C475.00,418.45 474.58,419.97 474.07,421.32 C473.55,422.67 472.66,427.99 472.09,433.15 C470.00,451.91 464.50,462.19 453.64,467.67 C450.81,469.10 448.18,470.77 447.79,471.38 C447.29,472.17 435.12,472.60 406.96,472.83 L 366.85 473.16 L 367.49 468.33 C367.84,465.67 368.55,461.48 369.07,459.00 C369.37,457.61 369.75,455.55 370.18,453.06 C368.43,464.72 368.78,465.00 371.56,465.00 C373.62,465.00 374.49,464.14 376.09,460.52 ZM 406.78 333.00 C424.97,333.00 440.12,332.00 439.41,330.85 C439.12,330.38 439.26,330.00 439.73,330.00 C440.19,330.00 440.69,328.54 440.82,326.75 C441.13,322.77 442.36,321.47 447.46,319.80 C450.63,318.76 451.55,317.90 452.04,315.50 C452.38,313.85 453.19,311.51 453.84,310.29 C455.93,306.39 452.76,305.77 432.64,306.16 C414.78,306.50 414.43,306.55 409.76,309.35 C401.51,314.28 395.42,320.55 391.62,328.03 C388.74,333.69 388.43,334.84 389.97,334.02 C391.01,333.46 398.57,333.00 406.78,333.00 ZM 655.00 700.06 C655.00,699.97 655.00,699.88 655.00,699.78 C655.01,702.75 655.30,703.00 658.08,703.00 C660.02,703.00 661.02,703.44 660.77,704.19 C660.26,705.72 659.08,705.95 656.00,705.10 C655.07,704.85 654.47,704.56 654.06,703.99 C654.58,703.86 655.00,702.15 655.00,700.06 ZM 383.79 360.75 C383.14,361.54 376.22,361.99 369.51,362.03 C376.23,361.95 383.18,361.49 383.79,360.75 ZM 653.30 696.27 C653.77,693.94 655.36,693.59 658.75,694.60 C655.47,693.63 653.90,693.97 653.30,696.27 ZM 655.51 696.62 C655.95,696.08 656.76,695.93 658.25,695.77 C656.76,695.93 655.95,696.10 655.51,696.62 Z" fill="rgb(97,197,165)"/><path d="M 0.00 473.00 L 0.00 0.00 L 473.00 0.00 L 946.00 0.00 L 946.00 473.00 L 946.00 946.00 L 473.00 946.00 L 0.00 946.00 L 0.00 473.00 ZM 176.18 704.38 C176.19,700.59 176.66,696.94 177.23,696.25 C177.98,695.32 177.70,695.00 176.12,695.00 C174.11,695.00 174.00,695.49 174.00,704.20 C174.00,710.76 174.31,713.09 175.07,712.33 C175.66,711.74 176.16,708.16 176.18,704.38 ZM 228.81 703.75 C228.65,696.29 228.55,695.71 228.26,700.75 C227.87,707.60 226.88,708.45 224.24,704.23 C221.24,699.46 217.66,695.00 216.81,695.00 C215.20,695.00 216.04,699.20 217.75,699.67 C219.35,700.11 224.43,707.07 226.20,711.25 C227.99,715.51 228.99,712.64 228.81,703.75 ZM 272.00 707.06 C272.00,703.79 272.38,700.88 272.84,700.60 C273.30,700.31 275.54,702.99 277.80,706.54 C280.07,710.09 282.39,713.00 282.96,713.00 C283.60,713.00 284.00,709.56 284.00,704.00 C284.00,698.67 283.59,695.00 283.00,695.00 C282.44,695.00 282.00,697.67 282.00,701.00 C282.00,704.30 281.64,707.00 281.20,707.00 C280.76,707.00 278.49,704.30 276.16,701.00 C273.84,697.70 271.50,695.00 270.97,695.00 C270.42,695.00 270.00,698.88 270.00,704.00 C270.00,709.33 270.41,713.00 271.00,713.00 C271.55,713.00 272.00,710.35 272.00,707.06 ZM 327.29 704.67 L 327.07 697.00 L 330.98 697.00 C333.13,697.00 335.16,696.55 335.50,696.00 C335.88,695.38 334.01,695.00 330.56,695.00 L 325.00 695.00 L 325.00 704.08 C325.00,710.91 325.31,713.06 326.25,712.75 C327.13,712.46 327.44,710.07 327.29,704.67 ZM 406.80 703.99 C407.16,693.56 405.61,691.86 404.31,701.25 L 403.45 707.50 L 399.47 701.28 C397.29,697.86 394.89,695.05 394.14,695.03 C393.31,695.01 393.02,695.61 393.39,696.58 C393.73,697.45 394.00,698.58 394.00,699.08 C394.00,699.59 394.58,700.00 395.28,700.00 C395.99,700.00 397.42,701.46 398.47,703.25 C400.70,707.08 405.29,713.00 406.00,712.99 C406.27,712.99 406.64,708.94 406.80,703.99 ZM 553.04 705.23 C553.05,704.28 553.66,702.44 554.37,701.15 L 555.68 698.80 L 556.93 701.84 C558.30,705.14 557.74,707.00 555.38,707.00 C554.56,707.00 554.17,707.47 554.53,708.04 C554.88,708.61 556.03,708.81 557.08,708.48 C558.48,708.03 559.29,708.55 560.15,710.44 C560.80,711.85 561.65,713.00 562.05,713.00 C562.46,713.00 561.37,708.95 559.64,704.01 C557.91,699.06 555.94,695.01 555.25,695.01 C554.56,695.00 554.00,695.61 554.00,696.36 C554.00,697.11 552.69,700.90 551.09,704.78 C549.49,708.67 548.44,712.10 548.75,712.42 C549.53,713.20 552.99,707.38 553.04,705.23 ZM 584.00 712.00 C584.00,711.45 582.42,711.00 580.50,711.00 C578.58,711.00 577.00,711.45 577.00,712.00 C577.00,712.55 578.58,713.00 580.50,713.00 C582.42,713.00 584.00,712.55 584.00,712.00 ZM 636.17 711.35 C637.63,710.03 638.00,708.19 638.00,702.35 C638.00,698.11 637.58,695.00 637.00,695.00 C636.43,695.00 636.00,697.93 636.00,701.80 C636.00,708.78 635.01,711.00 631.87,711.00 C628.45,711.00 627.01,708.16 626.88,701.18 L 626.75 694.50 L 625.90 700.00 C625.44,703.03 625.29,706.68 625.58,708.12 C626.45,712.49 632.78,714.42 636.17,711.35 ZM 680.90 709.44 C682.06,707.49 683.01,704.90 683.02,703.69 C683.02,702.49 683.43,700.88 683.91,700.11 C684.96,698.46 685.74,699.74 688.55,707.75 C689.56,710.64 690.81,713.00 691.31,713.00 C692.38,713.00 692.11,711.94 688.64,702.63 C685.78,694.94 685.33,694.23 684.11,695.57 C683.21,696.54 678.00,710.71 678.00,712.17 C678.00,713.75 678.81,712.99 680.90,709.44 ZM 718.24 702.25 C718.42,698.26 718.21,695.00 717.78,695.00 C717.35,695.00 716.95,696.46 716.88,698.25 C716.82,700.04 716.46,702.85 716.09,704.50 L 715.43 707.50 L 711.46 701.28 C709.28,697.86 707.16,695.05 706.75,695.03 C706.34,695.01 706.00,696.12 706.00,697.50 C706.00,698.93 706.58,700.00 707.34,700.00 C708.08,700.00 709.53,701.58 710.57,703.50 C711.61,705.42 712.71,707.00 713.01,707.00 C713.32,707.00 714.45,708.46 715.53,710.25 C717.76,713.95 717.70,714.13 718.24,702.25 ZM 744.14 711.09 C745.44,710.03 746.17,708.84 745.76,708.43 C745.35,708.01 744.19,708.43 743.18,709.34 C739.34,712.81 735.00,710.17 735.00,704.36 C735.00,697.77 738.24,695.26 742.97,698.21 C745.58,699.84 747.02,698.22 744.56,696.42 C741.98,694.53 736.57,694.61 734.95,696.56 C734.24,697.42 733.46,700.52 733.21,703.45 C732.84,707.89 733.12,709.12 734.89,710.89 C737.51,713.51 741.05,713.59 744.14,711.09 ZM 770.46 712.06 C770.78,711.54 769.12,710.98 766.77,710.81 L 762.50 710.50 L 762.50 703.50 L 762.50 696.50 L 766.75 696.69 C769.09,696.79 771.00,696.46 771.00,695.94 C771.00,695.42 768.53,695.00 765.50,695.00 L 760.00 695.00 L 760.00 703.33 C760.00,707.92 760.30,711.97 760.67,712.33 C761.69,713.35 769.80,713.13 770.46,712.06 ZM 247.90 704.19 C249.36,699.02 251.50,699.11 251.50,704.34 C251.50,706.36 251.99,708.00 252.60,708.00 C253.20,708.00 254.18,709.01 254.78,710.25 C256.74,714.32 255.99,709.71 253.51,702.50 C252.19,698.65 250.58,695.50 249.94,695.50 C248.94,695.50 245.07,704.25 243.31,710.50 L 242.74 712.50 L 244.71 710.50 C245.79,709.40 247.23,706.56 247.90,704.19 ZM 440.13 708.25 C440.21,706.19 440.17,702.59 440.04,700.25 C439.83,696.14 439.92,696.00 442.84,696.00 C445.52,696.00 449.00,698.11 449.00,699.74 C449.00,700.07 448.25,701.17 447.34,702.18 C446.43,703.19 446.01,704.35 446.43,704.76 C447.44,705.77 451.00,701.23 451.00,698.92 C451.00,696.33 447.67,694.83 442.71,695.19 L 438.50 695.50 L 438.21 703.75 C438.03,708.98 438.30,712.00 438.96,712.00 C439.53,712.00 440.06,710.31 440.13,708.25 ZM 467.00 703.44 C467.00,697.99 466.64,695.11 466.00,695.50 C465.45,695.84 465.00,699.69 465.00,704.06 C465.00,708.69 465.42,712.00 466.00,712.00 C466.59,712.00 467.00,708.48 467.00,703.44 ZM 509.73 707.75 C510.44,705.11 510.52,703.14 509.94,702.55 C509.42,702.03 509.00,700.34 509.00,698.80 C509.00,697.26 508.65,696.00 508.23,696.00 C507.81,696.00 507.40,699.60 507.33,704.00 C507.26,708.40 507.52,712.00 507.90,712.00 C508.28,712.00 509.10,710.09 509.73,707.75 ZM 660.77 704.19 C661.02,703.44 660.02,703.00 658.08,703.00 C655.24,703.00 655.00,702.74 655.00,699.56 C655.00,696.43 655.28,696.10 658.25,695.77 L 661.50 695.41 L 658.75 694.60 C654.11,693.22 652.85,694.37 653.19,699.70 C653.46,703.76 653.85,704.51 656.00,705.10 C659.08,705.95 660.26,705.72 660.77,704.19 ZM 430.64 651.90 C453.00,645.05 469.89,629.42 477.17,608.84 C486.98,581.14 480.25,551.78 459.64,532.29 C444.36,517.85 423.25,511.56 398.58,514.09 C380.06,515.99 364.33,523.50 352.89,535.91 C338.01,552.04 331.60,573.85 335.37,595.57 C339.42,618.99 352.27,636.60 372.47,646.44 C386.89,653.46 395.24,655.12 412.64,654.44 C420.02,654.15 426.09,653.30 430.64,651.90 ZM 193.77 625.89 L 194.03 598.28 L 200.16 597.64 C203.53,597.29 219.05,597.00 234.65,597.00 L 263.00 597.00 L 263.00 588.51 L 263.00 580.03 L 228.75 579.76 L 194.50 579.50 L 194.23 555.76 L 193.96 532.02 L 232.73 531.76 L 271.50 531.50 L 271.79 523.25 L 272.08 515.00 L 223.04 515.00 L 174.00 515.00 L 174.00 583.83 C174.00,621.69 174.32,652.98 174.70,653.37 C175.09,653.75 179.47,653.94 184.45,653.78 L 193.50 653.50 L 193.77 625.89 ZM 313.02 609.75 C313.03,585.41 313.07,555.15 313.12,542.50 C313.16,529.85 313.15,518.49 313.10,517.25 C313.00,515.08 312.66,515.00 303.50,515.00 L 294.00 515.00 L 294.00 584.50 L 294.00 654.00 L 303.50 654.00 L 313.00 654.00 L 313.02 609.75 ZM 520.24 593.25 L 520.50 532.50 L 544.00 532.52 C565.59,532.54 567.97,532.72 573.27,534.70 C581.12,537.64 586.40,542.08 589.44,548.29 C595.23,560.14 593.19,575.50 584.67,584.27 C577.64,591.50 567.41,594.23 543.50,595.24 L 537.50 595.50 L 537.66 602.29 C537.90,612.88 537.11,612.35 551.41,611.52 L 563.80 610.81 L 568.06 617.16 C572.65,623.98 581.40,636.39 589.29,647.25 L 594.19 654.00 L 604.04 654.00 C609.45,654.00 614.09,653.66 614.34,653.25 C614.59,652.84 612.48,649.24 609.65,645.26 C606.82,641.28 601.80,634.17 598.50,629.45 C595.20,624.73 590.88,618.76 588.89,616.18 C582.15,607.42 582.12,607.75 589.91,603.12 C598.02,598.31 604.83,591.08 608.70,583.19 C611.37,577.75 611.50,576.85 611.50,563.00 C611.50,548.64 611.47,548.44 608.21,541.78 C603.67,532.49 596.77,525.69 587.57,521.44 C574.97,515.61 569.80,515.00 533.43,515.00 L 501.00 515.00 L 501.00 583.83 C501.00,621.69 501.30,652.97 501.67,653.33 C502.03,653.70 506.30,654.00 511.16,654.00 L 519.98 654.00 L 520.24 593.25 ZM 653.85 636.25 L 661.45 619.00 L 698.53 619.00 L 735.62 619.00 L 737.45 623.25 C746.11,643.34 749.52,650.75 750.81,652.25 C752.04,653.68 753.99,654.00 761.65,654.00 C767.70,654.00 771.00,653.62 771.00,652.92 C771.00,652.32 768.35,646.13 765.11,639.17 C761.86,632.20 751.69,609.85 742.49,589.50 C733.30,569.15 724.54,549.80 723.03,546.50 C721.52,543.20 717.67,534.76 714.47,527.75 L 708.67 515.00 L 698.48 515.00 L 688.30 515.00 L 681.73 529.75 C673.44,548.34 646.48,608.17 643.99,613.50 C634.16,634.49 626.27,652.63 626.67,653.28 C626.94,653.71 631.46,653.94 636.71,653.79 L 646.26 653.50 L 653.85 636.25 ZM 447.79 471.38 C448.18,470.77 450.81,469.10 453.64,467.67 C464.50,462.19 470.00,451.91 472.09,433.15 C472.66,427.99 473.55,422.67 474.07,421.32 C474.58,419.97 475.00,418.45 475.00,417.93 C475.00,417.40 468.89,417.00 460.67,417.00 L 446.35 417.00 L 445.10 425.25 C442.81,440.35 442.11,442.63 439.40,443.86 C437.83,444.58 430.10,445.00 418.45,445.00 L 400.00 445.00 L 400.00 442.31 C400.00,439.97 401.52,431.06 405.10,412.38 C406.95,402.75 403.42,403.45 448.18,403.84 C472.53,404.04 489.92,403.77 493.85,403.12 C501.56,401.86 508.08,398.82 513.35,394.07 C521.01,387.15 523.37,381.08 526.57,360.09 C528.78,345.56 530.09,347.00 514.62,347.00 C505.12,347.00 500.96,347.36 500.25,348.25 C499.70,348.94 498.94,352.88 498.55,357.00 C497.68,366.09 494.62,373.83 491.62,374.50 C490.45,374.76 469.92,375.09 446.00,375.24 L 402.50 375.50 L 396.00 379.17 C382.25,386.93 378.04,395.24 375.03,420.50 C373.79,430.91 370.46,452.44 369.07,459.00 C368.55,461.48 367.84,465.67 367.49,468.33 L 366.85 473.16 L 406.96 472.83 C435.12,472.60 447.29,472.17 447.79,471.38 ZM 383.79 360.75 C384.36,360.06 385.58,355.00 386.50,349.50 C388.94,334.98 389.18,334.63 397.01,333.87 C400.58,333.52 435.90,333.18 475.50,333.11 C551.08,332.97 551.38,332.96 559.96,328.52 C564.25,326.30 570.51,320.53 573.01,316.49 C575.88,311.84 577.60,305.45 579.89,291.00 C580.97,284.12 583.24,270.40 584.93,260.50 C586.62,250.60 588.00,240.79 588.00,238.71 L 588.00 234.92 L 507.25 235.21 L 426.50 235.50 L 420.73 237.83 C413.68,240.68 406.20,247.94 402.76,255.28 C401.29,258.42 399.66,264.89 398.69,271.50 C395.91,290.40 395.87,291.01 397.23,291.50 C397.93,291.74 404.09,291.62 410.93,291.22 L 423.36 290.50 L 426.11 278.04 C427.96,269.67 429.44,265.15 430.62,264.29 C432.01,263.27 445.30,263.00 493.81,263.00 L 555.23 263.00 L 554.56 269.75 C553.07,284.72 550.74,298.63 549.36,300.79 C548.55,302.06 546.75,303.53 545.35,304.06 C543.78,304.65 514.02,305.01 468.15,304.97 C416.54,304.94 391.65,305.27 387.52,306.05 C371.08,309.17 361.43,321.77 359.06,343.21 C358.53,348.00 357.61,353.75 357.00,355.98 C356.40,358.22 356.18,360.49 356.51,361.02 C357.45,362.54 382.52,362.28 383.79,360.75 ZM 396.50 636.03 C376.79,632.46 360.16,616.47 355.58,596.69 C349.29,569.53 363.55,542.79 389.05,533.91 C398.22,530.72 418.66,530.70 427.42,533.87 C435.65,536.85 442.20,541.28 448.09,547.87 C466.88,568.89 466.17,601.68 446.50,621.51 C439.84,628.23 431.36,633.15 422.46,635.47 C416.43,637.04 403.62,637.31 396.50,636.03 ZM 669.62 602.19 C669.35,601.75 673.41,591.74 678.65,579.94 C683.89,568.15 689.44,555.58 690.98,552.00 C696.55,539.09 698.11,536.00 699.05,536.00 C699.57,536.00 700.00,536.43 700.00,536.95 C700.00,537.48 706.27,552.20 713.93,569.66 C721.59,587.13 727.64,601.77 727.37,602.21 C726.73,603.25 670.27,603.24 669.62,602.19 Z" fill="rgb(254,254,254)"/></g></svg>
